#!OML:ASF E:\CV Data\Top Level 1\Subject 1\Session 1\player.ASF
:FULLY-SPECIFIED
:DEGREES
718
root 5.1495 17.0368 16.6918 32.4336 -2.72129 -8.3689
lowerback 22.1957 0.83637 3.76121
upperback 1.87943 2.39109 3.60974
thorax -10.3776 1.03223 1.11896
lowerneck -18.5504 -6.30761 -12.6283
upperneck 4.1233 -6.78291 12.8148
head 5.12544 -2.76453 5.43858
rclavicle -8.54774e-015 1.19271e-015
rhumerus -39.557 4.56624 -86.7649
rradius 51.2338
rwrist -25.158
rhand -27.0736 -1.47867
rfingers 7.12502
rthumb -0.491204 -31.4579
lclavicle -8.54774e-015 1.19271e-015
lhumerus -44.8257 -4.25958 92.5507
lradius 51.7091
lwrist 10.944
lhand -20.3667 7.2637
lfingers 7.12502
lthumb 5.98582 37.1591
rfemur -48.1425 3.89092 24.0743
rtibia 41.6478
rfoot -22.6129 -10.2094
rtoes -2.10492
lfemur -48.2503 6.24094 -11.6119
ltibia 44.0091
lfoot -20.654 1.5663
ltoes -4.89898
719
root 5.15058 16.9591 16.7199 33.3985 -2.68454 -8.41059
lowerback 22.4946 0.86216 3.68776
upperback 1.81972 2.42486 3.5807
thorax -10.6099 1.0462 1.11542
lowerneck -18.8 -6.34611 -12.6036
upperneck 3.34641 -6.77496 13.0375
head 4.93284 -2.7447 5.50522
rclavicle -4.87022e-015 3.69739e-014
rhumerus -39.5794 4.73012 -86.8567
rradius 51.9393
rwrist -25.359
rhand -27.0594 -1.53976
rfingers 7.12502
rthumb -0.47749 -31.519
lclavicle -4.87022e-015 3.69739e-014
lhumerus -44.8216 -4.5727 92.5749
lradius 52.2339
lwrist 11.1311
lhand -20.3881 7.07293
lfingers 7.12502
lthumb 5.96515 36.969
rfemur -50.013 3.8083 24.1678
rtibia 43.3523
rfoot -23.0754 -10.3395
rtoes -2.60263
lfemur -50.2571 6.64817 -11.8032
ltibia 45.9259
lfoot -21.0389 1.43474
ltoes -5.92123
720
root 5.15179 16.8737 16.7504 34.3875 -2.63257 -8.44995
lowerback 22.7496 0.879931 3.64338
upperback 1.74961 2.45162 3.54082
thorax -10.8285 1.05556 1.08566
lowerneck -19.0573 -6.39235 -12.5822
upperneck 2.5429 -6.77401 13.2846
head 4.73616 -2.72796 5.58017
rclavicle 2.68359e-015 -1.90336e-014
rhumerus -39.6014 4.85742 -86.9598
rradius 52.646
rwrist -25.5546
rhand -27.0404 -1.62787
rfingers 7.12502
rthumb -0.459153 -31.6071
lclavicle 2.68359e-015 -1.90336e-014
lhumerus -44.8099 -4.85341 92.5633
lradius 52.766
lwrist 11.3096
lhand -20.3821 6.87104
lfingers 7.12502
lthumb 5.97089 36.7669
rfemur -51.9194 3.75072 24.2497
rtibia 45.0705
rfoot -23.5026 -10.5105
rtoes -3.16489
lfemur -52.3204 7.04314 -12.0089
ltibia 47.8803
lfoot -21.3626 1.32008
ltoes -7.09992
721
root 5.15268 16.7798 16.7828 35.3951 -2.55758 -8.48479
lowerback 22.9646 0.888935 3.62543
upperback 1.6685 2.47092 3.49475
thorax -11.0367 1.06019 1.03651
lowerneck -19.3166 -6.44624 -12.5665
upperneck 1.71031 -6.77933 13.5572
head 4.53391 -2.71434 5.66433
rclavicle -1.2275e-014 1.02871e-014
rhumerus -39.6206 4.94952 -87.0723
rradius 53.3441
rwrist -25.7548
rhand -27.0206 -1.72536
rfingers 7.12502
rthumb -0.439961 -31.7047
lclavicle -1.2275e-014 1.02871e-014
lhumerus -44.7889 -5.08885 92.5177
lradius 53.3028
lwrist 11.4923
lhand -20.3377 6.6618
lfingers 7.12502
lthumb 6.01377 36.5565
rfemur -53.8957 3.72155 24.3171
rtibia 46.9044
rfoot -23.958 -10.7439
rtoes -3.79568
lfemur -54.4729 7.41899 -12.2209
ltibia 49.9499
lfoot -21.6782 1.21703
ltoes -8.35464
722
root 5.15302 16.7053 16.8201 36.3997 -2.46644 -8.51183
lowerback 23.1512 0.891896 3.62094
upperback 1.58292 2.48374 3.44466
thorax -11.2339 1.06119 0.977372
lowerneck -19.5695 -6.50481 -12.5493
upperneck 0.839159 -6.78723 13.8447
head 4.32082 -2.70316 5.75373
rclavicle 8.05078e-015 -4.87022e-015
rhumerus -39.6338 5.0104 -87.1935
rradius 54.0252
rwrist -25.9661
rhand -26.9952 -1.80622
rfingers 7.12502
rthumb -0.415413 -31.7856
lclavicle 8.05078e-015 -4.87022e-015
lhumerus -44.7565 -5.26395 92.4417
lradius 53.8382
lwrist 11.68
lhand -20.2907 6.43153
lfingers 7.12502
lthumb 6.05917 36.3249
rfemur -55.8213 3.72824 24.3673
rtibia 48.7623
rfoot -24.4061 -11.0615
rtoes -4.6458
lfemur -56.579 7.76278 -12.4348
ltibia 52.011
lfoot -21.9986 1.12021
ltoes -9.65976
723
root 5.15288 16.5964 16.857 37.3908 -2.38167 -8.54224
lowerback 23.3165 0.898964 3.61979
upperback 1.4969 2.50112 3.39254
thorax -11.42 1.06415 0.912646
lowerneck -19.8072 -6.56511 -12.5282
upperneck -0.0808413 -6.79349 14.1413
head 4.09161 -2.69334 5.84677
rclavicle -4.39811e-015 -1.35795e-014
rhumerus -39.6365 5.05472 -87.3199
rradius 54.6835
rwrist -26.1983
rhand -26.9576 -1.87365
rfingers 7.12502
rthumb -0.379176 -31.8531
lclavicle -4.39811e-015 -1.35795e-014
lhumerus -44.7014 -5.37132 92.3388
lradius 54.3608
lwrist 11.8867
lhand -20.2356 6.2182
lfingers 7.12502
lthumb 6.11232 36.11
rfemur -57.8455 3.77068 24.4001
rtibia 50.7996
rfoot -24.8421 -11.4445
rtoes -5.69627
lfemur -58.7931 8.08345 -12.6259
ltibia 54.2241
lfoot -22.3276 1.01759
ltoes -10.968
724
root 5.15245 16.4802 16.8963 38.3317 -2.31123 -8.58489
lowerback 23.4917 0.912744 3.62116
upperback 1.41994 2.52778 3.34137
thorax -11.6013 1.07118 0.844107
lowerneck -20.0068 -6.61991 -12.4959
upperneck -1.07187 -6.78934 14.4348
head 3.83422 -2.68257 5.93979
rclavicle -1.38722e-014 -2.3172e-014
rhumerus -39.6219 5.08456 -87.4497
rradius 55.3012
rwrist -26.4425
rhand -26.8871 -1.904
rfingers 7.12502
rthumb -0.311007 -31.8835
lclavicle -1.38722e-014 -2.3172e-014
lhumerus -44.6198 -5.40382 92.2158
lradius 54.8612
lwrist 12.1058
lhand -20.1895 6.01719
lfingers 7.12502
lthumb 6.15685 35.9077
rfemur -59.831 3.84773 24.4356
rtibia 52.9099
rfoot -25.2473 -11.8984
rtoes -6.96846
lfemur -60.9579 8.37732 -12.7748
ltibia 56.4625
lfoot -22.6752 0.90036
ltoes -12.2755
725
root 5.15201 16.3585 16.9394 39.1718 -2.26916 -8.65367
lowerback 23.7248 0.937927 3.62672
upperback 1.36111 2.57261 3.29259
thorax -11.7938 1.08589 0.768747
lowerneck -20.1388 -6.66364 -12.4509
upperneck -2.15326 -6.7684 14.7192
head 3.53753 -2.66973 6.03195
rclavicle -1.43622e-014 3.19298e-015
rhumerus -39.5939 5.1053 -87.582
rradius 55.868
rwrist -26.6913
rhand -26.7779 -1.91295
rfingers 7.12502
rthumb -0.205579 -31.8926
lclavicle -1.43622e-014 3.19298e-015
lhumerus -44.5143 -5.36739 92.0815
lradius 55.3258
lwrist 12.3413
lhand -20.1832 5.80667
lfingers 7.12502
lthumb 6.16296 35.697
rfemur -61.7261 3.9568 24.4934
rtibia 55.1266
rfoot -25.6754 -12.4124
rtoes -8.39759
lfemur -63.0011 8.65298 -12.8593
ltibia 58.7498
lfoot -23.0955 0.801471
ltoes -13.6717
726
root 5.1513 16.2336 16.9872 39.8737 -2.25938 -8.75464
lowerback 24.0522 0.975844 3.6333
upperback 1.3261 2.63843 3.24811
thorax -12.0108 1.1094 0.68875
lowerneck -20.1962 -6.69056 -12.384
upperneck -3.32343 -6.72487 14.9814
head 3.1996 -2.65317 6.11858
rclavicle 3.60297e-014 1.88348e-014
rhumerus -39.5481 5.12235 -87.7175
rradius 56.3625
rwrist -26.9447
rhand -26.6265 -1.86861
rfingers 7.12502
rthumb -0.0593477 -31.8483
lclavicle 3.60297e-014 1.88348e-014
lhumerus -44.3781 -5.27211 91.9405
lradius 55.7366
lwrist 12.5977
lhand -20.2083 5.62604
lfingers 7.12502
lthumb 6.13871 35.5171
rfemur -63.441 4.0941 24.5902
rtibia 57.3414
rfoot -26.0968 -12.9751
rtoes -9.88901
lfemur -64.8168 8.92247 -12.8689
ltibia 60.9814
lfoot -23.585 0.702191
ltoes -15.0723
727
root 5.14986 16.1077 17.041 40.406 -2.297 -8.8905
lowerback 24.4981 1.03058 3.62493
upperback 1.31831 2.72715 3.20726
thorax -12.262 1.14308 0.61097
lowerneck -20.1882 -6.69589 -12.2908
upperneck -4.55337 -6.6545 15.2142
head 2.82971 -2.63055 6.19707
rclavicle -6.65929e-015 -1.2275e-014
rhumerus -39.477 5.147 -87.8598
rradius 56.7583
rwrist -27.2112
rhand -26.434 -1.79348
rfingers 7.12502
rthumb 0.126566 -31.7732
lclavicle -6.65929e-015 -1.2275e-014
lhumerus -44.2111 -5.12775 91.7949
lradius 56.0767
lwrist 12.8926
lhand -20.2662 5.48556
lfingers 7.12502
lthumb 6.08285 35.3782
rfemur -64.9229 4.26847 24.725
rtibia 59.5234
rfoot -26.5227 -13.581
rtoes -11.3773
lfemur -66.3314 9.20638 -12.8131
ltibia 63.122
lfoot -24.1751 0.633903
ltoes -16.4386
